HIERARCHY
ROOT Hips
{
	OFFSET 49.746899 -5.741386 96.068100
	CHANNELS 6 Xposition Yposition Zposition Xrotation Yrotation Zrotation
	JOINT spine
	{
		OFFSET 0.000000 -0.467660 8.132492
		CHANNELS 3 Xrotation Yrotation Zrotation
		JOINT spine1
		{
			OFFSET 0.000000 -0.000001 10.349800
			CHANNELS 3 Xrotation Yrotation Zrotation
			JOINT spine2
			{
				OFFSET 0.000000 -0.000002 9.916992
				CHANNELS 3 Xrotation Yrotation Zrotation
				JOINT Neck
				{
					OFFSET 0.000000 -1.213904 25.461006
					CHANNELS 3 Xrotation Yrotation Zrotation
					JOINT Head
					{
						OFFSET 0.000000 -0.000001 7.692444
						CHANNELS 3 Xrotation Yrotation Zrotation
						End Site
						{
							OFFSET 0.000000 6.140627 18.619995
						}
					}
				}
				JOINT RightShoulder
				{
					OFFSET -4.175751 0.581443 10.709602
					CHANNELS 3 Xrotation Yrotation Zrotation
					JOINT RightArm
					{
						OFFSET 0.000000 -0.000002 14.046600
						CHANNELS 3 Xrotation Yrotation Zrotation
						JOINT RightArmRoll
						{
							OFFSET 0.000000 -0.000001 7.090973
							CHANNELS 3 Xrotation Yrotation Zrotation
							JOINT RightForeArm
							{
								OFFSET 0.000000 -0.000003 20.653503
								CHANNELS 3 Xrotation Yrotation Zrotation
								JOINT RightForeArmRoll
								{
									OFFSET 0.000000 -0.000001 7.957184
									CHANNELS 3 Xrotation Yrotation Zrotation
									JOINT RightHand
									{
										OFFSET 0.000000 -0.000003 15.968307
										CHANNELS 3 Xrotation Yrotation Zrotation
										End Site
										{
											OFFSET 0.000000 0.000000 0.100006
										}
									}
								}
							}
						}
					}
				}
				JOINT LeftShoulder
				{
					OFFSET 4.175751 0.581443 10.709602
					CHANNELS 3 Xrotation Yrotation Zrotation
					JOINT LeftArm
					{
						OFFSET 0.000000 -0.000002 14.046600
						CHANNELS 3 Xrotation Yrotation Zrotation
						JOINT LeftArmRoll
						{
							OFFSET 0.000000 -0.000001 7.090973
							CHANNELS 3 Xrotation Yrotation Zrotation
							JOINT LeftForeArm
							{
								OFFSET 0.000000 -0.000003 20.653503
								CHANNELS 3 Xrotation Yrotation Zrotation
								JOINT LeftForeArmRoll
								{
									OFFSET 0.000000 -0.000001 7.957184
									CHANNELS 3 Xrotation Yrotation Zrotation
									JOINT LeftHand
									{
										OFFSET 0.000000 -0.000003 15.968307
										CHANNELS 3 Xrotation Yrotation Zrotation
										End Site
										{
											OFFSET 0.000000 0.000000 0.100006
										}
									}
								}
							}
						}
					}
				}
			}
		}
	}
	JOINT RightUpLeg
	{
		OFFSET -7.208340 1.108840 -1.321823
		CHANNELS 3 Xrotation Yrotation Zrotation
		JOINT RightUpLegRoll
		{
			OFFSET 0.000000 -0.000003 18.723801
			CHANNELS 3 Xrotation Yrotation Zrotation
			JOINT RightLeg
			{
				OFFSET 0.000000 0.000004 -23.186600
				CHANNELS 3 Xrotation Yrotation Zrotation
				JOINT RightLegRoll
				{
					OFFSET 0.000000 -0.000004 23.262398
					CHANNELS 3 Xrotation Yrotation Zrotation
					JOINT RightFoot
					{
						OFFSET 0.000000 -0.000003 19.362099
						CHANNELS 3 Xrotation Yrotation Zrotation
						JOINT RightToeBase
						{
							OFFSET 0.000000 -0.000003 16.185699
							CHANNELS 3 Xrotation Yrotation Zrotation
							End Site
							{
								OFFSET 0.006859 0.903521 7.838623
							}
						}
					}
				}
			}
		}
	}
	JOINT LeftUpLeg
	{
		OFFSET 7.208340 1.108840 -1.321823
		CHANNELS 3 Xrotation Yrotation Zrotation
		JOINT LeftUpLegRoll
		{
			OFFSET 0.000000 -0.000003 18.723900
			CHANNELS 3 Xrotation Yrotation Zrotation
			JOINT LeftLeg
			{
				OFFSET 0.000000 -0.000004 23.186501
				CHANNELS 3 Xrotation Yrotation Zrotation
				JOINT LeftLegRoll
				{
					OFFSET 0.000000 -0.000004 23.477509
					CHANNELS 3 Xrotation Yrotation Zrotation
					JOINT LeftFoot
					{
						OFFSET 0.000000 -0.000003 19.147003
						CHANNELS 3 Xrotation Yrotation Zrotation
						JOINT LeftToeBase
						{
							OFFSET 0.000000 -0.000003 16.185699
							CHANNELS 3 Xrotation Yrotation Zrotation
							End Site
							{
								OFFSET -0.030746 0.903521 7.838623
							}
						}
					}
				}
			}
		}
	}
}
MOTION
Frames: 8
Frame Time: 0.041667
54.240196 -9.599855 96.071404 -2.698099 0.347931 -0.492790 -0.547413 -0.416915 0.044966 2.918873 -0.811676 0.082554 4.564019 -0.810428 0.092454 14.949380 2.475379 -3.766116 -1.338617 -1.634634 -3.703973 -15.517845 -58.841513 -18.332340 -41.465887 -121.120359 -20.483065 0.000006 0.000004 0.000003 0.054420 -7.784117 -0.878302 0.000000 0.000001 -3.059372 -5.000206 -7.999012 0.000121 -12.541884 60.316642 14.869458 -42.595833 118.951446 33.571514 -0.000001 0.000010 0.000003 0.070618 9.650865 1.023213 0.000003 0.000001 3.040511 -5.000250 7.998801 -0.000132 -4.485477 -173.414050 2.937564 179.999991 -0.000004 -0.981002 167.015392 -1.428530 -0.695358 -0.000003 0.000001 0.138340 69.896871 6.437811 3.297700 25.458808 -7.344896 0.002760 -1.372546 174.615548 -0.395193 -0.000005 -0.000004 -0.957743 -12.637704 0.750518 0.659534 0.000002 0.000003 -0.197274 72.707015 -6.091090 -4.142203 25.456892 7.352934 -0.000001 
54.233997 -9.603556 96.080002 -2.671699 0.346575 -0.490328 -0.547791 -0.417026 0.044356 2.917354 -0.813138 0.082751 4.562510 -0.811903 0.092656 14.966358 2.471878 -3.767117 -1.370294 -1.631444 -3.705110 -15.522641 -58.830632 -18.337827 -41.460566 -121.124171 -20.466588 0.000006 0.000004 0.000003 0.054419 -7.774879 -0.877715 -0.000001 0.000002 -3.059369 -5.000206 -7.999012 0.000122 -12.531089 60.316868 14.856829 -42.563796 118.957184 33.526653 0.000000 0.000009 0.000002 0.070617 9.645497 1.025500 0.000003 0.000001 3.040768 -5.000250 7.998803 -0.000132 -4.513956 -173.415306 2.930946 179.999991 -0.000004 -0.980004 167.010297 -1.426558 -0.695037 -0.000003 0.000001 0.138333 69.898462 6.437139 3.297789 25.458815 -7.344899 0.002761 -1.401723 174.616600 -0.389433 -0.000005 -0.000005 -0.957753 -12.642106 0.751077 0.659542 0.000003 0.000002 -0.197249 72.709310 -6.091273 -4.141604 25.456899 7.352936 -0.000001 
54.233196 -9.605038 96.078796 -2.645509 0.345195 -0.487842 -0.548150 -0.417105 0.043733 2.915845 -0.814587 0.082974 4.560992 -0.813365 0.092882 14.983932 2.468372 -3.768092 -1.402543 -1.628252 -3.706221 -15.527108 -58.819595 -18.342922 -41.455078 -121.127913 -20.449586 0.000007 0.000004 0.000004 0.054421 -7.765490 -0.877118 0.000003 0.000001 -3.059369 -5.000204 -7.999011 0.000120 -12.520154 60.317414 14.844060 -42.532848 118.962101 33.482820 -0.000000 0.000010 0.000002 0.070616 9.640034 1.027775 0.000002 0.000001 3.041030 -5.000250 7.998802 -0.000131 -4.542209 -173.415552 2.924465 179.999991 -0.000005 -0.980005 167.005106 -1.425543 -0.694939 -0.000003 0.000000 0.138322 69.900135 6.436442 3.297868 25.458816 -7.344897 0.002763 -1.430462 174.618677 -0.383871 -0.000004 -0.000005 -0.957773 -12.646412 0.751786 0.659555 0.000002 0.000003 -0.197212 72.711592 -6.091429 -4.141004 25.456894 7.352933 -0.000000 
54.235798 -9.605136 96.068199 -2.619478 0.343798 -0.485339 -0.548506 -0.417163 0.043100 2.914327 -0.816028 0.083214 4.559482 -0.814819 0.093125 15.002012 2.464850 -3.769053 -1.435212 -1.625080 -3.707300 -15.531445 -58.808687 -18.347867 -41.450697 -121.130919 -20.433561 0.000004 0.000004 0.000002 0.054419 -7.755998 -0.876520 -0.000000 0.000002 -3.059367 -5.000204 -7.999011 0.000121 -12.509053 60.318063 14.831100 -42.501894 118.967047 33.438793 -0.000001 0.000009 0.000002 0.070614 9.634515 1.030054 0.000004 0.000001 3.041280 -5.000252 7.998802 -0.000132 -4.570292 -173.415812 2.918135 179.999991 -0.000004 -0.978993 166.999901 -1.424541 -0.694844 -0.000002 0.000001 0.138308 69.901891 6.435678 3.298031 25.458815 -7.344899 0.002760 -1.458905 174.619728 -0.378407 -0.000005 -0.000004 -0.957800 -12.650412 0.752604 0.659569 0.000004 0.000002 -0.197167 72.713770 -6.091585 -4.140609 25.456901 7.352936 -0.000001 
54.227695 -9.607290 96.072205 -2.593537 0.342394 -0.482826 -0.548856 -0.417208 0.042462 2.912807 -0.817462 0.083464 4.557965 -0.816267 0.093379 15.020387 2.461315 -3.770002 -1.468090 -1.621907 -3.708372 -15.535646 -58.797683 -18.352648 -41.445059 -121.134607 -20.416033 0.000006 0.000004 0.000002 0.054420 -7.746449 -0.875921 -0.000001 0.000002 -3.059372 -5.000205 -7.999013 0.000122 -12.497878 60.318828 14.818058 -42.470792 118.971923 33.394523 -0.000001 0.000008 0.000001 0.070616 9.628954 1.032329 0.000006 0.000001 3.041540 -5.000252 7.998802 -0.000132 -4.598277 -173.417069 2.911967 179.999991 -0.000005 -0.978994 166.994710 -1.423540 -0.694750 -0.000002 0.000000 0.138293 69.903653 6.434880 3.298285 25.458815 -7.344899 0.002761 -1.487189 174.620808 -0.373011 -0.000005 -0.000005 -0.957831 -12.654518 0.753483 0.659587 0.000003 0.000002 -0.197116 72.716038 -6.091682 -4.140300 25.456901 7.352935 -0.000001 
54.229595 -9.607587 96.066803 -2.567616 0.340990 -0.480309 -0.549204 -0.417251 0.041823 2.911298 -0.818896 0.083717 4.556446 -0.817714 0.093635 15.038864 2.457790 -3.770957 -1.501039 -1.618735 -3.709432 -15.539821 -58.786687 -18.357400 -41.440520 -121.137544 -20.399772 0.000003 0.000004 0.000003 0.054422 -7.736889 -0.875318 0.000001 0.000001 -3.059370 -5.000204 -7.999013 0.000122 -12.486696 60.319586 14.805002 -42.439872 118.976882 33.350400 -0.000001 0.000009 0.000003 0.070616 9.623395 1.034609 0.000001 0.000001 3.041799 -5.000252 7.998803 -0.000132 -4.626241 -173.417342 2.905742 179.999991 -0.000005 -0.977997 166.989410 -1.422538 -0.694657 -0.000002 0.000001 0.138276 69.905408 6.434083 3.298542 25.458811 -7.344898 0.002761 -1.515429 174.621873 -0.367632 -0.000005 -0.000004 -0.957863 -12.658419 0.754377 0.659603 0.000003 0.000003 -0.197065 72.718203 -6.091807 -4.139903 25.456897 7.352937 -0.000001 
54.236694 -9.615235 96.065590 -2.541652 0.339593 -0.477796 -0.549555 -0.417299 0.041187 2.909779 -0.820332 0.083965 4.554929 -0.819163 0.093885 15.057142 2.454257 -3.771908 -1.533866 -1.615551 -3.710494 -15.544052 -58.775683 -18.362223 -41.436145 -121.140536 -20.383762 0.000006 0.000004 0.000003 0.054421 -7.727359 -0.874717 0.000000 0.000001 -3.059369 -5.000204 -7.999012 0.000120 -12.475498 60.320249 14.791943 -42.408952 118.981841 33.306321 -0.000001 0.000009 0.000003 0.070614 9.617846 1.036883 0.000002 0.000001 3.042051 -5.000252 7.998803 -0.000132 -4.654255 -173.417588 2.899470 179.999991 -0.000005 -0.977996 166.984233 -1.420551 -0.694333 -0.000002 0.000001 0.138262 69.907177 6.433323 3.298706 25.458813 -7.344898 0.002762 -1.543748 174.623936 -0.362249 -0.000005 -0.000004 -0.957893 -12.662522 0.755240 0.659621 0.000003 0.000003 -0.197016 72.720478 -6.091930 -4.139497 25.456899 7.352935 -0.000001 
54.235897 -9.615028 96.065994 -2.515574 0.338212 -0.475293 -0.549913 -0.417363 0.040557 2.908260 -0.821776 0.084200 4.553409 -0.820619 0.094124 15.075018 2.450738 -3.772862 -1.566409 -1.612378 -3.711576 -15.548395 -58.764660 -18.367159 -41.430514 -121.144224 -20.366432 0.000005 0.000004 0.000004 0.054419 -7.717899 -0.874121 0.000002 0.000001 -3.059369 -5.000204 -7.999012 0.000121 -12.464460 60.320891 14.779046 -42.378049 118.986813 33.262413 0.000000 0.000009 0.000003 0.070617 9.612336 1.039161 0.000003 0.000001 3.042311 -5.000252 7.998803 -0.000131 -4.682390 -173.417861 2.893105 179.999991 -0.000005 -0.976998 166.979042 -1.419550 -0.695234 -0.000002 0.000001 0.138249 69.908837 6.432589 3.298878 25.458813 -7.344896 0.002762 -1.572282 174.625015 -0.356755 -0.000005 -0.000005 -0.957918 -12.666623 0.756028 0.659635 0.000003 0.000003 -0.196973 72.722752 -6.092053 -4.138994 25.456899 7.352936 -0.000001 
